<?xml version="1.0" encoding="UTF-8"?>
<svg id="logo" width="512" height="512" version="1.1" viewBox="-256 -256 512 512" xmlns="http://www.w3.org/2000/svg">
	<g id="wheel">
		<g id="segments">
			<path id="red" d="M 0,244 A 244,244 0 0 1 -172.53405,172.53405 L 0,0 Z" fill="#d55161"/>
			<path id="orange" d="M -172.53406,172.53405 A 244,244 0 0 1 -244,0 H 0 Z" fill="#f99a66"/>
			<path id="yellow" d="m -244,0 a 244,244 0 0 1 71.46594,-172.53405 L 0,0 Z" fill="#e6c653"/>
			<path id="green" d="M -172.53406,-172.53405 A 244,244 0 0 1 0,-244 V 0 Z" fill="#7bc8a4"/>
			<path id="darkgreen" d="m 0,-244 a 244,244 0 0 1 172.53405,71.46594 L 0,0 Z" fill="#2a8b9d"/>
			<path id="teal" d="M 172.53405,-172.53406 A 244,244 0 0 1 244,0 H 0 Z" fill="#69c9cd"/>
			<path id="blue" d="M 244,0 A 244,244 0 0 1 172.53406,172.53405 L 0,0 Z" fill="#54556e"/>
			<path id="purple" d="M 172.53406,172.53405 A 244,244 0 0 1 0,244 V 0 Z" fill="#a973a2"/>
		</g>
		<g id="frame" stroke-width="24">
			<path id="star" transform="translate(-256,-256)" d="m500 256c0 24.46553-99.38149 33.42165-108.74404 56.02485s54.57783 99.20946 37.27809 116.5092-93.906-46.64064-116.5092-37.27809-31.55932 108.74404-56.02485 108.74404-33.42165-99.38149-56.02485-108.74404-99.20946 54.57783-116.5092 37.27809c-17.29974-17.29974 46.640645-93.906 37.278095-116.5092s-108.74404-31.55932-108.74404-56.02485 99.38149-33.42165 108.74404-56.02485-54.577835-99.20946-37.278095-116.5092c17.299745-17.29974 93.906005 46.640645 116.5092 37.278095s31.55932-108.74404 56.02485-108.74404 33.42165 99.38149 56.02485 108.74404 99.20946-54.577835 116.5092-37.278095c17.29974 17.299745-46.64064 93.906005-37.27809 116.5092s108.74404 31.55932 108.74404 56.02485z" fill="#18181b"/>
			<circle id="aperture" r="244" fill="none" stroke="#18181b"/>
		</g>
	</g>
	<g id="foreground">
		<rect id="square" x="-180" y="-180" width="360" height="360" fill="#18181b"/>
		<path id="stamp" d="m-180-180v360h48v-24h-24v-312h24v-24h-24zm48 168h120v-144h-24v48h-96zm264-168v24h24v312h-24v24h48v-360h-24zm0 336v-144h-120v144h24v-120h24v120h24v-120h24v120zm-120-312v144h24v-72h72v72h24v-96h-24v-48zm-144 168v144h120v-24h-96v-96h96v-24h-96zm168-144h48v24h-48zm-144 48h72v48h-72z" fill="#fff"/>
	</g>
</svg>
