<?xml version="1.0" encoding="UTF-8"?>
<svg id="logo" width="512" height="512" version="1.1" viewBox="-256 -256 512 512" xmlns="http://www.w3.org/2000/svg">
	<g id="wheel">
		<g id="segments">
			<path id="red" d="M 0,244 A 244,244 0 0 1 -172.53405,172.53405 L 0,0 Z" fill="#d55161"/>
			<path id="orange" d="M -172.53406,172.53405 A 244,244 0 0 1 -244,0 H 0 Z" fill="#f99a66"/>
			<path id="yellow" d="m -244,0 a 244,244 0 0 1 71.46594,-172.53405 L 0,0 Z" fill="#e6c653"/>
			<path id="green" d="M -172.53406,-172.53405 A 244,244 0 0 1 0,-244 V 0 Z" fill="#7bc8a4"/>
			<path id="darkgreen" d="m 0,-244 a 244,244 0 0 1 172.53405,71.46594 L 0,0 Z" fill="#2a8b9d"/>
			<path id="teal" d="M 172.53405,-172.53406 A 244,244 0 0 1 244,0 H 0 Z" fill="#69c9cd"/>
			<path id="blue" d="M 244,0 A 244,244 0 0 1 172.53406,172.53405 L 0,0 Z" fill="#54556e"/>
			<path id="purple" d="M 172.53406,172.53405 A 244,244 0 0 1 0,244 V 0 Z" fill="#a973a2"/>
		</g>
		<g id="frame">
			<circle id="aperture" r="244" fill="none" stroke="#fff" stroke-width="24"/>
		</g>
	</g>
	<g id="foreground">
		<path id="bot" d="m185.45454-26.354652h-18.54545c0-71.803123-58.04728-129.87644-129.81818-129.87644h-18.545455v-23.5633c11.12727-6.3083 18.545455-18.36825 18.545455-32.09803 0-20.40918-16.505455-37.10758-37.09091-37.10758s-37.09091 16.6984-37.09091 37.10758c0 13.72978 7.418183 25.78973 18.545454 32.09803v23.5633h-18.545454c-71.770907 0-129.81817 58.073315-129.81817 129.87644h-18.54549c-10.2 0-18.54543 8.349199-18.54543 18.553778v56.917101c0 10.204574 8.34543 18.553773 18.54543 18.553773h3.45457v17.298026c0 20.594684 16.69089 37.107544 37.0909 37.107544h289.8182c20.58545 0 37.0909-16.51286 37.0909-37.107544v-17.298026h3.45454c10.20001 0 18.54546-8.349199 18.54546-18.553773v-56.917101c0-10.204579-8.34545-18.553778-18.54546-18.553778" fill="#fff" stroke="#18181b" stroke-width="14"/>
		<path id="eyes" d="m-40.985456 19.614789c-7.232727-16.327327-23.367274-27.830666-42.469092-27.830666-19.101822 0-35.236382 11.50334-42.469082 27.830666-2.4109-5.751668-3.89455-11.874416-3.89455-18.553777 0-25.604216 20.77092-46.384443 46.363632-46.384443 25.592728 0 46.363637 20.780227 46.363637 46.384443 0 6.6793613-1.483635 12.802109-3.894545 18.553777m166.90908 0c-7.23271-16.327327-23.92362-27.830666-42.469087-27.830666-18.54544 0-35.23635 11.50334-42.469077 27.830666-2.41091-5.751668-3.894545-11.874416-3.894545-18.553777 0-25.604216 20.770909-46.384443 46.363622-46.384443 25.592717 0 46.363657 20.780227 46.363657 46.384443 0 6.6793613-1.48364 12.802109-3.89457 18.553777z" fill="#18181b"/>
		<rect id="plate" x="-182" y="60.669998" width="364" height="112" fill="#fff"/>
		<path id="stamp" d="m-189.00001 60.67v112h28.00001v-14h-14v-83.999999h14v-14.000001h-14zm28.00001 98h69.999997v-83.999999h-13.999997v28.000009h-56zm322-98v14.000001h14v83.999999h-14v14h28.00001v-112h-14.00001zm0 98v-83.999999h-70v83.999999h14v-69.999999h14v69.999999h14v-69.999999h14v69.999999zm-238-83.999999v83.999999h14v-42h42.000003v42h14v-55.99999h-14v-28.000009zm84.000003 0v83.999999h69.999999v-14h-55.999998v-55.999999h55.999998v-14h-55.999998zm-70.000003 14h28.000002v14.000009h-28.000002zm-83.999998 27.999999h42v28h-42z" fill="#18181b"/>
	</g>
</svg>
