<?xml version="1.0" encoding="UTF-8"?>
<svg width="256" height="256" version="1.1" viewBox="0 0 256 256" xmlns="http://www.w3.org/2000/svg">
  <defs>
    <style>
      <![CDATA[
      @font-face {
        font-family: "Nouveau IBM";
        src: url("../../fonts/Nouveau_IBM/otf/Nouveau_IBM.otf") format("opentype");
      }
      :root {
        /* FOREGROUND */
        color: #383952;
      }
      #base {
        /* BACKGROUND */
        fill: #69c9cd;
      }
      #head-cap,
      #number,
      #icon,
      #e2e {
        fill: currentColor;
      }
      #head-stamp {
        fill: #ffffff;
      }
      #icon {
        transform: translate(68px, 115px) scale(0.46875);
      }
      #e2e * {
        display: none;
      }
      /* E2E */
      #e2e-on {
        display: inline;
      }
      ]]>
    </style>
  </defs>
  <circle id="base" cx="128" cy="128" r="123" />
  <g id="head">
    <path id="head-cap" d="M 128,0 A 128,128 0 0 0 10.17,78.57 128,56.549 0 0 0 128,113.097 128,56.549 0 0 0 245.99,78.423 128,128 0 0 0 128,-0.001 Z" />
    <path id="head-stamp" d="m40.33 40.006v52h13v-6.5h-6.5v-39h6.5v-6.5h-6.5zm13 45.5h32.5v-39h-6.5v13h-26zm149.5-45.5v6.5h6.5v39h-6.5v6.5h13v-52h-6.5zm0 45.5v-39h-32.5v39h6.5v-32.5h6.5v32.5h6.5v-32.5h6.5v32.5zm-110.5-39v39h6.5v-19.5h19.5v19.5h6.5v-26h-6.5v-13zm39 0v39h32.5v-6.5h-26v-26h26v-6.5h-26zm-32.5 6.5h13v6.5h-13zm-39 13h19.5v13h-19.5z" />
  </g>
  <text id="number" x="10" y="157.5" font-family="'Nouveau IBM'" font-size="56px" font-weight="bold">
    <!-- BEGIN NUMBER -->
    05
    <!-- END NUMBER -->
  </text>
  <g id="icon">
    <!-- BEGIN ICON -->
    <svg style="width:24px;height:24px" viewBox="0 0 24 24">
      <path fill="currentColor" d="M21.33,12.91C21.42,14.46 20.71,15.95 19.44,16.86L20.21,18.35C20.44,18.8 20.47,19.33 20.27,19.8C20.08,20.27 19.69,20.64 19.21,20.8L18.42,21.05C18.25,21.11 18.06,21.14 17.88,21.14C17.37,21.14 16.89,20.91 16.56,20.5L14.44,18C13.55,17.85 12.71,17.47 12,16.9C11.5,17.05 11,17.13 10.5,17.13C9.62,17.13 8.74,16.86 8,16.34C7.47,16.5 6.93,16.57 6.38,16.56C5.59,16.57 4.81,16.41 4.08,16.11C2.65,15.47 1.7,14.07 1.65,12.5C1.57,11.78 1.69,11.05 2,10.39C1.71,9.64 1.68,8.82 1.93,8.06C2.3,7.11 3,6.32 3.87,5.82C4.45,4.13 6.08,3 7.87,3.12C9.47,1.62 11.92,1.46 13.7,2.75C14.12,2.64 14.56,2.58 15,2.58C16.36,2.55 17.65,3.15 18.5,4.22C20.54,4.75 22,6.57 22.08,8.69C22.13,9.8 21.83,10.89 21.22,11.82C21.29,12.18 21.33,12.54 21.33,12.91M16.33,11.5C16.9,11.57 17.35,12 17.35,12.57A1,1 0 0,1 16.35,13.57H15.72C15.4,14.47 14.84,15.26 14.1,15.86C14.35,15.95 14.61,16 14.87,16.07C20,16 19.4,12.87 19.4,12.82C19.34,11.39 18.14,10.27 16.71,10.33A1,1 0 0,1 15.71,9.33A1,1 0 0,1 16.71,8.33C17.94,8.36 19.12,8.82 20.04,9.63C20.09,9.34 20.12,9.04 20.12,8.74C20.06,7.5 19.5,6.42 17.25,6.21C16,3.25 12.85,4.89 12.85,5.81V5.81C12.82,6.04 13.06,6.53 13.1,6.56A1,1 0 0,1 14.1,7.56C14.1,8.11 13.65,8.56 13.1,8.56V8.56C12.57,8.54 12.07,8.34 11.67,8C11.19,8.31 10.64,8.5 10.07,8.56V8.56C9.5,8.61 9.03,8.21 9,7.66C8.92,7.1 9.33,6.61 9.88,6.56C10.04,6.54 10.82,6.42 10.82,5.79V5.79C10.82,5.13 11.07,4.5 11.5,4C10.58,3.75 9.59,4.08 8.59,5.29C6.75,5 6,5.25 5.45,7.2C4.5,7.67 4,8 3.78,9C4.86,8.78 5.97,8.87 7,9.25C7.5,9.44 7.78,10 7.59,10.54C7.4,11.06 6.82,11.32 6.3,11.13C5.57,10.81 4.75,10.79 4,11.07C3.68,11.34 3.68,11.9 3.68,12.34C3.68,13.08 4.05,13.77 4.68,14.17C5.21,14.44 5.8,14.58 6.39,14.57C6.24,14.31 6.11,14.04 6,13.76C5.81,13.22 6.1,12.63 6.64,12.44C7.18,12.25 7.77,12.54 7.96,13.08C8.36,14.22 9.38,15 10.58,15.13C11.95,15.06 13.17,14.25 13.77,13C14,11.62 15.11,11.5 16.33,11.5M18.33,18.97L17.71,17.67L17,17.83L18,19.08L18.33,18.97M13.68,10.36C13.7,9.83 13.3,9.38 12.77,9.33C12.06,9.29 11.37,9.53 10.84,10C10.27,10.58 9.97,11.38 10,12.19A1,1 0 0,0 11,13.19C11.57,13.19 12,12.74 12,12.19C12,11.92 12.07,11.65 12.23,11.43C12.35,11.33 12.5,11.28 12.66,11.28C13.21,11.31 13.68,10.9 13.68,10.36Z" />
    </svg>
    <!-- END ICON -->
  </g>
  <g id="e2e">
    <path id="e2e-off" d="m215 111-19.051 8.4609 4.5312 4.5586 14.52-6.4805 21 9.3613v14.76c0 4.86-1.3794 9.8394-3.6894 14.189l4.3789 4.3496c3.36-5.7 5.3106-12.359 5.3106-19.199v-18zm-29.16 6-3.8398 3.8106 6 6v14.189c0 16.65 11.52 32.22 27 36 5.61-1.38 10.71-4.3193 14.91-8.2793l6.7793 6.7793 3.8106-3.8398zm8.1602 15.811 31.77 31.77c-3.18 3.09-6.8695 5.3699-10.77 6.4199-11.25-3-21-16.38-21-29.34z" />
    <path id="e2e-on" d="m215 111-27 12v18c0 16.65 11.52 32.22 27 36 15.48-3.78 27-19.35 27-36v-18zm0 6.5391 21 9.3613v14.76c0 12.96-9.75 26.34-21 29.34z" />
  </g>
</svg>
