<?xml version="1.0" encoding="UTF-8"?>
<svg width="256" height="256" version="1.1" viewBox="0 0 256 256" xmlns="http://www.w3.org/2000/svg">
  <g id="wheel">
    <path id="wheel-teal" d="m128 1.768a126.23 126.23 0 0 0-126.23 126.23h126.23z" fill="#69c9cd" />
    <path id="wheel-green" d="m128 1.768v126.23h126.23a126.23 126.23 0 0 0-126.23-126.23z" fill="#7bc8a4" />
    <path id="wheel-yellow" d="m128 128v126.23a126.23 126.23 0 0 0 126.23-126.23z" fill="#e6c653" />
    <path id="wheel-red" d="m128 128h-126.23a126.23 126.23 0 0 0 126.23 126.23z" fill="#d55161" />
    <path id="wheel-outline" d="m128 0a128 128 0 0 0-128 128 128 128 0 0 0 128 128 128 128 0 0 0 128-128 128 128 0 0 0-128-128zm-1.7676 3.6621v122.57h-122.57a124.46 124.46 0 0 1 122.57-122.57zm3.5352 0a124.46 124.46 0 0 1 122.57 122.57h-122.57zm-126.11 126.11h122.57v122.57a124.46 124.46 0 0 1-122.57-122.57zm126.11 0h122.57a124.46 124.46 0 0 1-122.57 122.57z" fill="#fff" />
  </g>
  <g id="stamp">
    <rect id="stamp-backdrop" x="36.96" y="36.96" width="182.08" height="182.08" ry="6.4" fill="#fff" />
    <path id="stamp-fill" d="m40.5 40.5v175h23.334v-11.666h-11.668v-151.67h11.668v-11.666h-11.668zm23.334 163.33h58.332v-11.668h-46.666v-46.666h46.666v-11.666h-58.332zm128.33-163.33v11.666h11.668v151.67h-11.668v11.666h23.334v-175h-11.666zm0 163.33v-70h-58.332v70h11.666v-58.334h11.666v58.334h11.668v-58.334h11.666v58.334zm-81.666-151.67v23.334h-46.666v46.666h58.332v-70zm23.334 0v70h11.666v-35h35v35h11.666v-46.666h-11.666v-23.334zm11.666 11.668h23.334v11.666h-23.334zm-70 23.332h35v23.334h-35z" fill="#433c5a" />
  </g>
</svg>
