<?xml version="1.0" encoding="UTF-8"?>
<svg width="256" height="256" version="1.1" viewBox="0 0 256 256" xmlns="http://www.w3.org/2000/svg">
  <g id="wheel">
    <path id="wheel-teal" d="m128 1.768a126.23 126.23 0 0 0-126.23 126.23h126.23z" fill="#69c9cd" />
    <path id="wheel-green" d="m128 1.768v126.23h126.23a126.23 126.23 0 0 0-126.23-126.23z" fill="#7bc8a4" />
    <path id="wheel-yellow" d="m128 128v126.23a126.23 126.23 0 0 0 126.23-126.23z" fill="#e6c653" />
    <path id="wheel-red" d="m128 128h-126.23a126.23 126.23 0 0 0 126.23 126.23z" fill="#d55161" />
  </g>
  <g id="stamp">
    <path id="stamp-backdrop" d="m128 1.0564c-13.493 0-24.48 11.083-24.48 24.479 0 7.5306 3.5402 14.229 9 18.721v1.8008h-2.5195c-36.137 0-65.873 27.708-69.152 63h-2.8477c-8.4845 0-15.48 6.994-15.48 15.479v27c0 8.4845 6.9959 15.48 15.48 15.48h180c8.4845 0 15.48-6.9959 15.48-15.48v-27c0-8.4845-6.9959-15.479-15.48-15.479h-2.8477c-3.2792-35.292-33.015-63-69.152-63h-2.5195v-1.8008c5.4598-4.4919 9-11.19 9-18.721 0-13.395-10.988-24.479-24.48-24.479z" fill="#433c5a" />
    <path id="stamp-foreground" d="m128 0c-70.654 0-128 57.346-128 128 0 70.654 57.346 128 128 128 70.654 0 128-57.346 128-128 0-70.654-57.346-128-128-128zm-16.592 7.6328 4.3906 4.7383c-3.5501 3.2942-5.7988 7.9606-5.7988 13.164 0 6.66 3.6 12.51 9 15.57v11.43h-9c-34.83 0-63 28.17-63 63h-9c-4.95 0-9 4.05-9 9v0.22461h-22.438c1.5741-60.051 46.611-109.18 104.85-117.13zm33.184 0c58.234 7.9454 103.27 57.076 104.85 117.13h-22.438v-0.22461c0-4.95-4.05-9-9-9h-9c0-34.83-28.17-63-63-63h-9v-11.43c5.4-3.06 9-8.9103 9-15.57 0-5.2035-2.2487-9.8699-5.7988-13.164l4.3906-4.7383zm-57.092 98.902c12.42 0 22.5 10.08 22.5 22.5 0 3.24-0.72062 6.21-1.8906 9-3.51-7.92-11.339-13.5-20.609-13.5-9.27 0-17.099 5.58-20.609 13.5-1.17-2.79-1.8906-5.76-1.8906-9 0-12.42 10.08-22.5 22.5-22.5zm81 0c12.42 0 22.5 10.08 22.5 22.5 0 3.24-0.72063 6.21-1.8906 9-3.51-7.92-11.609-13.5-20.609-13.5s-17.099 5.58-20.609 13.5c-1.17-2.79-1.8906-5.76-1.8906-9 0-12.42 10.08-22.5 22.5-22.5zm-161.94 24.705h22.438v20.295c0 4.95 4.05 9 9 9h9v51.84h77.76v37.062c-64.567-1.6925-116.5-53.63-118.2-118.2zm220.44 0h22.438c-1.6925 64.567-53.63 116.5-118.2 118.2v-37.062h77.76v-51.84h9c4.95 0 9-4.05 9-9v-20.295z" fill="#fff" />
    <path id="stamp-stamp" d="m40.52 160.54v51.84h12.96v-6.48h-6.48v-38.88h6.48v-6.48h-6.48zm12.96 45.36h32.4v-38.88h-6.48v12.96h-25.92zm149.04-45.36v6.48h6.48v38.88h-6.48v6.48h12.96v-51.84h-6.48zm0 45.36v-38.88h-32.4v38.88h6.48v-32.4h6.48v32.4h6.48v-32.4h6.48v32.4zm-110.16-38.88v38.88h6.48v-19.44h19.44v19.44h6.48v-25.92h-6.48v-12.96zm38.88 0v38.88h32.4v-6.48h-25.92v-25.92h25.92v-6.48h-25.92zm-32.4 6.48h12.96v6.48h-12.96zm-38.88 12.96h19.44v12.96h-19.44z" fill="#433c5a" />
  </g>
</svg>
